<svg width="20" height="20" viewBox="0 0 20 20" fill="none" xmlns="http://www.w3.org/2000/svg">
<g clip-path="url(#clip0_3745_139)">
<path d="M10 12.5C10.3283 12.5 10.6534 12.4353 10.9567 12.3097C11.26 12.1841 11.5356 11.9999 11.7678 11.7678C11.9999 11.5356 12.1841 11.26 12.3097 10.9567C12.4353 10.6534 12.5 10.3283 12.5 10C12.5 9.6717 12.4353 9.34661 12.3097 9.04329C12.1841 8.73998 11.9999 8.46438 11.7678 8.23223C11.5356 8.00009 11.26 7.81594 10.9567 7.6903C10.6534 7.56466 10.3283 7.5 10 7.5C9.33696 7.5 8.70107 7.76339 8.23223 8.23223C7.76339 8.70107 7.5 9.33696 7.5 10C7.5 10.663 7.76339 11.2989 8.23223 11.7678C8.70107 12.2366 9.33696 12.5 10 12.5Z" stroke="#94A3B8" stroke-width="1.67"/>
<path d="M16.1662 12.4998C16.051 12.7592 16.0165 13.0473 16.067 13.3266C16.1175 13.606 16.2508 13.8637 16.4495 14.0664L16.4995 14.1164C16.8122 14.4291 16.9879 14.8532 16.9879 15.2954C16.9879 15.7377 16.8122 16.1618 16.4995 16.4745C16.1868 16.7872 15.7627 16.9629 15.3204 16.9629C14.8782 16.9629 14.4541 16.7872 14.1413 16.4745L14.0914 16.4245C13.8838 16.2247 13.6203 16.093 13.3359 16.0468C13.0516 16.0007 12.7599 16.0423 12.4998 16.1662C12.1718 16.2294 11.8766 16.4065 11.6665 16.6662C11.4504 16.9226 11.3323 17.2474 11.3332 17.5828V17.4994C11.3332 17.9414 11.1576 18.3653 10.8451 18.6779C10.5326 18.9904 10.1087 19.166 9.66668 19.166C9.22468 19.166 8.80079 18.9904 8.48825 18.6779C8.17571 18.3653 8.00013 17.9414 8.00013 17.4994V17.4244C7.9869 17.1481 7.89304 16.8817 7.73016 16.6581C7.56727 16.4345 7.34248 16.2635 7.08353 16.1662C6.82408 16.051 6.53602 16.0165 6.25669 16.067C5.97736 16.1175 5.71965 16.2508 5.51698 16.4495L5.46698 16.4995C5.31214 16.6544 5.12832 16.7772 4.92601 16.861C4.72371 16.9448 4.50688 16.9879 4.2879 16.9879C4.06892 16.9879 3.85209 16.9448 3.64979 16.861C3.44748 16.7772 3.26366 16.6544 3.10882 16.4995C2.95398 16.3447 2.83115 16.1609 2.74736 15.9585C2.66356 15.7562 2.62043 15.5394 2.62043 15.3204C2.62043 15.1015 2.66356 14.8846 2.74736 14.6823C2.83115 14.48 2.95398 14.2962 3.10882 14.1413L3.15882 14.0914C3.43121 13.9378 3.64513 13.6984 3.76722 13.4105C3.88931 13.1226 3.91271 12.8024 3.83377 12.4998C3.77057 12.1718 3.59349 11.8766 3.3338 11.6665C3.07736 11.4504 2.75256 11.3323 2.4172 11.3332H2.50053C2.05853 11.3332 1.63464 11.1576 1.3221 10.8451C1.00957 10.5326 0.833984 10.1087 0.833984 9.66668C0.833984 9.22468 1.00957 8.80079 1.3221 8.48825C1.63464 8.17571 2.05853 8.00013 2.50053 8.00013H2.57552C2.85184 7.9869 3.11824 7.89304 3.34184 7.73016C3.56544 7.56727 3.73645 7.34248 3.83377 7.08353C3.94894 6.82408 3.9835 6.53602 3.93299 6.25669C3.88247 5.97736 3.7492 5.71965 3.55045 5.51698L3.50046 5.46698C3.34562 5.31214 3.22279 5.12832 3.13899 4.92601C3.0552 4.72371 3.01207 4.50688 3.01207 4.2879C3.01207 4.06892 3.0552 3.85209 3.13899 3.64979C3.22279 3.44748 3.34562 3.26366 3.50046 3.10882C3.6553 2.95398 3.83912 2.83115 4.04142 2.74736C4.24373 2.66356 4.46056 2.62043 4.67954 2.62043C4.89851 2.62043 5.11535 2.66356 5.31765 2.74736C5.51996 2.83115 5.70378 2.95398 5.85862 3.10882L5.90862 3.15882C6.0622 3.43121 6.3016 3.64513 6.58949 3.76722C6.87739 3.88931 7.19758 3.91271 7.50017 3.83377C7.82819 3.77057 8.12332 3.59349 8.33344 3.3338C8.54954 3.07736 8.66765 2.75256 8.66675 2.4172V2.50053C8.66675 2.05853 8.84233 1.63464 9.15487 1.3221C9.46741 1.00957 9.8913 0.833984 10.3333 0.833984C10.7753 0.833984 11.1992 1.00957 11.5117 1.3221C11.8243 1.63464 11.9998 2.05853 11.9998 2.50053V2.57552C12.0131 2.85184 12.1069 3.11824 12.2698 3.34184C12.4327 3.56544 12.6575 3.73645 12.9164 3.83377C13.1759 3.94894 13.4639 3.9835 13.7433 3.93299C14.0226 3.88247 14.2803 3.7492 14.483 3.55045L14.533 3.50046C14.8457 3.18775 15.2698 3.01207 15.7121 3.01207C16.1543 3.01207 16.5784 3.18775 16.8912 3.50046C17.2039 3.81317 17.3795 4.2373 17.3795 4.67954C17.3795 5.12178 17.2039 5.54591 16.8912 5.85862L16.8412 5.90862C16.5688 6.0622 16.3548 6.3016 16.2327 6.58949C16.1107 6.87739 16.0873 7.19758 16.1662 7.50017C16.2829 7.80848 16.4662 8.08346 16.7078 8.30011C16.9578 8.51676 17.2661 8.63342 17.5911 8.63342H17.4994C17.9414 8.63342 18.3653 8.809 18.6779 9.12154C18.9904 9.43408 19.166 9.85797 19.166 10.3C19.166 10.742 18.9904 11.1659 18.6779 11.4784C18.3653 11.7909 17.9414 11.9665 17.4994 11.9665H17.4244C17.1868 11.9421 16.9468 11.9781 16.7268 12.0714C16.5068 12.1646 16.3139 12.312 16.1662 12.4998Z" stroke="#94A3B8" stroke-width="1.67" stroke-linecap="round"/>
</g>
<defs>
<clipPath id="clip0_3745_139">
<rect width="20" height="20" fill="white"/>
</clipPath>
</defs>
</svg>
